# ProBuilder 5.0.6
# https://unity3d.com/unity/features/worldbuilding/probuilder
# 5/27/2024 12:40:33 PM

mtllib ./SM_QuarterFloor_01.mtl
o SM_QuarterFloor_01

g 1_Floor
v 87.53076 0 123.6645
v -120.8698 0 123.6645
v 87.53076 20.10541 123.6645
v -120.8698 20.10541 123.6645
v -120.8698 0 86.71399
v -120.8698 0 -126.515
v -120.8698 20.10541 86.71399
v -120.8698 20.10541 -126.515
v 87.53076 0 -126.515
v 87.53076 20.10541 -126.515
v 254.1441 0 -126.515
v 254.1441 0 86.71398
v 254.1441 20.10541 -126.515
v 254.1441 20.10541 86.71398
v 87.53076 20.10541 86.71398
v 87.53076 0 86.71398
v 87.53076 0 738.3362
v 87.53076 20.10541 738.3362
v 235.3878 0 738.3361
v 235.3878 20.10541 738.3361
v 87.53076 0 237.9843
v 87.53076 20.10541 237.9843
v 254.1441 0 264.0128
v 254.1441 20.10541 264.0128
v -9.270657 0 237.9843
v -9.270657 20.10541 237.9843
v -9.270657 0 396.2468
v -9.270657 20.10541 396.2468
v 235.3877 0 396.2468
v 87.53076 0 396.2468
v 87.53076 20.10541 396.2468
v 235.3877 20.10541 392.53
v 426.4166 20.10541 264.0128
v 426.4166 0 264.0128
v 426.4166 20.10541 396.2468
v 426.4166 0 396.2468
v 425.3005 20.10541 264.0128
v 445.1981 0 264.0128
v 425.3005 20.10541 392.53
v 445.1981 0 396.2468
v 563.9846 20.10541 264.0128
v 563.9846 0 264.0128
v 425.3005 29.65211 396.2468
v 425.3005 29.65211 264.0128
v 472.0066 29.65211 396.2468
v 472.0066 29.65211 264.0128
v 563.9846 0 396.2468
v 445.1981 0 1638.411
v 445.1981 20.10541 1638.411
v 584.301 0 1638.411
v 584.301 20.10541 1638.411
v 463.3715 20.10541 392.53
v 235.3878 0 487.0516
v 235.3878 20.10541 487.0516
v 563.9846 0 487.0516
v 445.1981 0 487.0516
v 445.1981 40.20077 392.53
v 466.5089 40.20077 392.53
v 235.3878 40.20077 487.0516
v 235.3878 40.20077 392.53
v 584.301 55.49884 1638.411
v 445.1981 55.49884 1638.411
v 445.1981 20.10541 487.0516
v 445.1981 20.10541 738.336
v 445.1981 0 738.336
v 445.1981 40.20077 738.336
v 235.3878 40.20077 738.336
v 445.1981 40.20077 487.0516
v 445.1981 40.20077 612.5422
v 445.1981 20.10541 614.3892
v 235.3878 40.20077 614.3892
v 235.3878 20.10541 614.3893
v 563.9846 20.10541 487.0516
v 563.9846 20.10541 697.7581
v 624.1473 40.20077 487.0516
v 624.1473 20.10541 487.0516
v 624.3973 40.20077 614.3892
v 624.3973 20.10541 614.3892
v 468.1046 40.20077 487.0516
v 563.9846 40.20077 612.1135
v 445.1981 0 614.3892
v 563.9846 0 697.7581
v 624.1473 0 487.0516
v 624.1473 0 614.3892
v 235.3878 0 614.3893
v -9.27066 20.10541 738.9888
v -9.27066 0 738.9888
v 87.53076 0 614.3895
v 87.53076 20.10541 614.3895
v -9.27066 20.10541 615.0421
v -9.27066 0 615.0421
v 563.9846 20.10541 739.3372
v 445.1981 20.10541 739.3372
v 582.2258 40.20077 614.3892
v 582.2258 20.10541 614.3892
v 581.9758 40.20077 739.3372
v 581.9758 20.10541 739.3372
v 445.1981 51.18719 739.3372
v 445.1981 51.08016 612.5422
v 563.9846 51.08016 612.1135
v 445.1981 51.08016 739.3372
v 563.9846 51.08016 739.3372
v 445.1981 0 739.3372
v 563.9846 0 739.3372
v 581.9758 0 614.3892
v 581.9758 0 739.3372
v 563.9846 20.10541 826.2643
v 445.1981 20.10541 826.2643
v 581.9758 55.49884 826.2643
v 581.9758 20.10541 826.2643
v 445.1981 55.49884 826.2643
v 563.9846 51.18719 739.3372
v 563.9846 55.49884 826.2643
v 445.1981 0 826.2643
v 563.9846 0 826.2643
v 581.9758 0 826.2643
v 563.9846 20.10541 928.1187
v 445.1981 20.10541 928.1187
v 618.0514 55.49884 826.2643
v 618.0514 20.10541 826.2643
v 618.0514 55.49884 928.1187
v 618.0514 20.10541 928.1187
v 445.1981 55.49884 928.1187
v 563.9846 55.49884 928.1187
v 445.1981 0 928.1187
v 584.301 0 928.1187
v 584.301 20.10541 928.1187
v 323.2363 0 928.1187
v 323.2363 20.10541 928.1187
v 323.2363 0 1161.818
v 323.2363 20.10541 1161.818
v 584.301 0 1161.818
v 445.1981 0 1161.818
v 445.1981 20.10541 1161.818
v 584.301 20.10541 1161.818
v 810.4913 20.10541 928.1187
v 810.4913 0 928.1187
v 810.4913 20.10541 1161.818
v 810.4913 0 1161.818
v 810.4913 55.49884 928.1187
v 810.4913 55.49884 1161.818
v 323.2363 55.49884 928.1187
v 323.2363 55.49884 1161.818
v 445.1981 55.49884 1161.818
v 584.301 55.49884 1161.818
v 402.3284 55.49884 1638.411
v 402.3284 20.10541 1638.411
v 402.3284 0 1638.411
v 810.4913 20.10541 1638.411
v 810.4913 55.49884 1638.411
v 810.4913 0 1638.411
v -53.008 20.10541 1161.818
v -53.008 55.49884 1161.818
v -53.008 20.10541 1638.411
v -53.008 55.49884 1638.411
v -53.008 0 1161.818
v -53.008 0 1638.411
v 581.9758 20.10541 392.53
v 581.9758 20.10541 487.0516
v 581.9758 40.20077 487.0516
v 581.9758 0 396.2468
v 581.9758 0 487.0516
v 581.9758 20.10541 264.0128
v 581.9758 0 264.0128
v 555.3495 20.10541 271.4679
v 581.9758 20.10541 271.4679
v 466.9857 40.20077 421.2431
v 445.1981 40.20077 421.2431
v 492.8444 40.20077 421.2431
v 493.9633 40.20077 487.0516
v 554.2615 40.20077 421.2431
v 560.5474 40.20077 487.0516
v 492.8444 40.20077 392.197
v 554.2615 40.20077 392.197
v 492.8444 29.86662 392.197
v 554.2615 29.86662 392.197
v 583.5397 40.20077 392.197
v 583.5397 40.20077 421.2431
v 554.2615 29.86662 314.3004
v 554.2615 40.20077 314.3004
v 583.5397 29.86662 314.3004
v 583.5397 40.20077 314.3004
v 583.5397 29.86662 392.197
v 581.05 29.65211 264.0128
v 581.05 29.65211 396.2468

vt 87.53075 0
vt -120.8698 0
vt 87.53075 20.10541
vt -120.8698 20.10541
vt 86.71398 0
vt -126.515 0
vt 86.71398 20.10541
vt -126.515 20.10541
vt 120.8698 0
vt -87.53075 0
vt 120.8698 20.10541
vt -87.53075 20.10541
vt 126.515 0
vt -86.71398 0
vt 126.515 20.10541
vt -86.71398 20.10541
vt -87.53076 86.71398
vt 120.8698 86.71399
vt -87.53076 -126.515
vt 120.8698 -126.515
vt 87.53076 -126.515
vt -120.8698 -126.515
vt 87.53076 86.71398
vt -120.8698 86.71399
vt 254.1441 -126.515
vt 254.1441 86.71398
vt -254.1441 20.10541
vt -254.1441 0
vt 87.53015 0
vt 87.53015 20.10541
vt 235.3871 0
vt 235.3871 20.10541
vt -254.1441 86.71398
vt -254.1441 -126.515
vt 237.9843 0
vt 237.9843 20.10541
vt 254.1441 264.0128
vt 87.53076 237.9843
vt -87.53076 237.9843
vt -254.1441 264.0128
vt -264.0128 20.10541
vt -264.0128 0
vt 396.2468 0
vt 396.2468 20.10541
vt 235.3877 396.2468
vt 87.53076 396.2468
vt -87.53076 396.2468
vt -235.3877 392.53
vt -426.4166 20.10541
vt -426.4166 0
vt -426.4166 396.2468
vt -426.4166 264.0128
vt 426.4166 264.0128
vt 426.4166 396.2468
vt 235.3877 -72.03185
vt 235.3877 -51.58577
vt 426.4166 -72.03185
vt 426.4166 -52.26143
vt 426.4166 20.10541
vt 426.4166 0
vt 425.3005 20.10541
vt 445.1981 0
vt 425.3005 392.53
vt 425.3005 264.0128
vt 445.1981 264.0128
vt 445.1981 396.2468
vt -425.3005 20.10541
vt -445.1981 0
vt -563.9846 20.10541
vt -563.9846 0
vt -425.3005 396.2468
vt -425.3005 264.0128
vt -472.0066 396.2468
vt -472.0066 264.0128
vt 563.9846 264.0128
vt 563.9846 396.2468
vt 445.1981 20.10541
vt 584.301 0
vt 584.301 20.10541
vt 392.53 20.10541
vt 264.0128 20.10541
vt 396.2468 29.65211
vt 264.0128 29.65211
vt 463.3715 161.1461
vt 425.3005 161.1461
vt 472.0066 171.3909
vt 425.3005 171.3909
vt -425.3005 29.65211
vt -472.0066 29.65211
vt 392.5301 20.10543
vt 487.0517 1.462448E-05
vt 487.0517 20.10543
vt 563.9846 487.0516
vt 445.1981 487.0516
vt -463.3715 20.10541
vt -445.1981 40.20077
vt -466.5089 40.20077
vt 487.0517 40.20077
vt 392.53 40.20077
vt 584.301 55.49884
vt 445.1981 55.49884
vt -445.1981 -72.03185
vt -425.3005 -51.58577
vt -235.3877 -72.03185
vt -235.3877 -51.58577
vt 235.3878 487.0516
vt -425.3005 392.53
vt -445.1981 487.0516
vt -235.3878 487.0516
vt 445.1977 20.10541
vt 445.1977 0
vt 235.3877 392.53
vt 445.1981 40.20077
vt 235.3878 40.20077
vt 235.3878 20.10541
vt -235.3877 20.10541
vt -235.3878 40.20077
vt -487.0516 40.20077
vt -487.0516 20.10541
vt -612.5422 40.20077
vt -614.3892 20.10541
vt -235.3878 614.3892
vt -445.1981 612.5422
vt 445.1981 614.3892
vt 235.3878 614.3893
vt 614.3893 20.10541
vt 614.3892 40.20077
vt 563.9846 697.7581
vt -488.2761 40.20077
vt -488.2761 20.10541
vt -615.6139 40.20077
vt -615.6139 20.10541
vt 612.5422 40.20077
vt -468.1046 487.0516
vt -563.9846 612.1135
vt 614.3892 0
vt -563.9846 487.0516
vt -445.1981 614.3892
vt -563.9846 697.7581
vt -488.2761 0
vt -615.6134 0
vt -487.0516 0
vt -614.3892 0
vt 9.270657 0
vt 9.270657 20.10541
vt -9.270657 396.2468
vt -9.270657 237.9843
vt 9.270657 237.9843
vt 9.270657 396.2468
vt 82.55138 20.10541
vt 82.55138 0
vt -14.25224 20.10541
vt -14.25224 0
vt 87.53076 614.3895
vt -87.53076 614.3895
vt -392.53 20.10542
vt -396.2468 5.985657E-06
vt -396.2468 20.10541
vt 9.27066 615.0421
vt -9.27066 615.0421
vt 615.0421 0
vt 615.0421 20.10541
vt 563.9846 739.3372
vt 445.1981 739.3372
vt -613.223 40.20077
vt -613.223 20.10541
vt -738.1713 40.20077
vt -738.1713 20.10541
vt 739.3372 20.10541
vt 739.3372 51.18719
vt -445.1981 739.3372
vt -563.9846 739.3372
vt 739.3372 0
vt -613.223 27.35822
vt -613.2236 7.251253
vt -738.1713 27.35822
vt -738.1713 7.254361
vt 563.9846 826.2643
vt 445.1981 826.2643
vt -739.3372 40.20077
vt -739.3372 20.10541
vt -826.2643 55.49884
vt -826.2643 20.10541
vt 826.2643 20.10541
vt 826.2643 55.49884
vt -445.1981 740.9652
vt -563.9846 740.9652
vt -445.1981 827.9992
vt -563.9846 827.9992
vt 826.2643 0
vt -445.1981 826.2643
vt -563.9846 826.2643
vt -739.3372 0
vt -826.2643 0
vt 563.9846 928.1187
vt 445.1981 928.1187
vt -928.1187 55.49884
vt -928.1187 20.10541
vt 928.1187 20.10541
vt 928.1187 55.49884
vt -445.1981 928.1187
vt -563.9846 928.1187
vt 928.1187 0
vt 584.301 928.1187
vt -584.301 928.1187
vt -920.624 20.10541
vt -920.624 0
vt -1024.485 20.10541
vt -1024.485 0
vt 1161.818 0
vt 1161.818 20.10541
vt 584.301 1161.818
vt 445.1981 1161.818
vt -445.1981 1161.818
vt -584.301 1161.818
vt -928.1187 0
vt -1161.818 20.10541
vt -1161.818 0
vt -1161.818 55.49884
vt 1161.818 55.49884
vt -445.1981 20.10541
vt -445.1981 55.49884
vt -323.2363 20.10541
vt -323.2363 55.49884
vt 323.2363 1161.818
vt 323.2363 928.1187
vt -323.2363 928.1187
vt -323.2363 1161.818
vt 402.3284 55.49884
vt 402.3284 20.10541
vt -323.2363 0
vt 402.3284 0
vt -563.9846 55.49884
vt -810.4913 55.49884
vt -810.4913 20.10541
vt -810.4913 1161.818
vt -810.4913 928.1187
vt 810.4913 928.1187
vt 810.4913 1161.818
vt 810.4913 20.10541
vt 810.4913 55.49884
vt -584.301 20.10541
vt -584.301 0
vt -810.4913 0
vt 810.4913 0
vt 584.301 1638.411
vt 445.1981 1638.411
vt -1638.411 55.49884
vt -1638.411 20.10541
vt 1638.411 20.10541
vt 1638.411 55.49884
vt -445.1981 1638.411
vt -584.301 1638.411
vt -402.3284 1638.411
vt 402.3284 1638.411
vt -1638.411 0
vt 1638.411 0
vt 810.4913 1638.411
vt -810.4913 1638.411
vt 53.008 20.10541
vt 53.008 55.49884
vt -53.008 1638.411
vt -53.008 1161.818
vt 53.008 1161.818
vt 53.008 1638.411
vt -53.008 55.49884
vt -53.008 20.10541
vt 53.008 0
vt -53.008 0
vt 87.53076 123.6645
vt -120.8698 123.6645
vt -123.6645 20.10541
vt -123.6645 0
vt 123.6645 0
vt 123.6645 20.10541
vt 120.8698 123.6645
vt -87.53076 123.6645
vt 463.3715 392.53
vt 581.9758 392.53
vt 581.9758 487.0516
vt 563.9846 20.10541
vt 468.1046 40.20077
vt 581.9758 20.10541
vt 581.9758 40.20077
vt 581.9758 396.2468
vt 563.9846 0
vt 581.9758 0
vt 581.9758 264.0128
vt -468.1046 40.20077
vt -581.9758 40.20077
vt -581.9758 20.10541
vt -582.2258 614.3892
vt -581.9758 487.0516
vt 582.2258 614.3892
vt -561.0844 -456.5986
vt -477.4191 -429.4153
vt -475.7433 -456.5986
vt -475.7433 -441.7431
vt -581.9758 0
vt 581.9758 614.3892
vt -563.0869 0
vt -563.0869 20.10541
vt -477.7988 0
vt -477.7461 20.10541
vt 564.9194 590.535
vt 564.3314 678.5036
vt 583.1527 592.8724
vt 582.5648 597.459
vt -454.658 762.1525
vt -460.3838 634.5837
vt -475.7384 762.1525
vt -475.9518 637.5521
vt 581.9758 739.3372
vt 563.9846 51.18719
vt 561.0845 20.10541
vt 561.0845 0
vt 475.7433 20.10541
vt 475.7968 0
vt -581.9758 739.3372
vt -563.9846 51.18719
vt -581.9758 827.9992
vt -581.9758 740.421
vt 581.9758 826.2643
vt 563.9846 55.49884
vt 581.9758 55.49884
vt -581.9758 826.2643
vt -618.0514 55.49884
vt -618.0514 20.10541
vt -618.0514 928.1187
vt -618.0514 826.2643
vt 618.0514 826.2643
vt 618.0514 928.1187
vt 618.0514 20.10541
vt 618.0514 55.49884
vt 555.3495 271.4679
vt 581.9758 271.4679
vt -624.1473 20.10541
vt -624.1473 0
vt -624.3973 614.3892
vt -624.1473 487.0516
vt 624.1473 487.0516
vt 624.1473 614.3892
vt 582.2258 20.10541
vt 624.1473 0
vt 624.3973 20.10541
vt -624.1473 40.20077
vt 624.3973 614.3892
vt 582.2258 40.20077
vt 624.3973 40.20077
vt -445.1981 392.53
vt -466.5089 392.53
vt -466.9857 421.2431
vt -445.1981 421.2431
vt -492.8444 421.2431
vt -493.9633 487.0516
vt -554.2615 421.2431
vt -560.5474 487.0516
vt -492.8444 392.197
vt -554.2615 392.197
vt -492.8444 40.20077
vt -554.2615 40.20077
vt -492.8444 29.86662
vt -554.2615 29.86662
vt -583.5397 392.197
vt -583.5397 421.2431
vt -583.5397 29.86662
vt -583.5397 40.20077
vt 392.197 40.20077
vt 392.197 29.86662
vt 314.3004 40.20077
vt 314.3004 29.86662
vt 554.2615 392.197
vt 583.5397 392.197
vt 554.2615 314.3004
vt 583.5397 314.3004
vt -392.197 29.86662
vt -392.197 40.20077
vt -314.3004 29.86662
vt -314.3004 40.20077
vt -583.5397 314.3004
vt -554.2615 314.3004
vt -581.05 264.0128
vt -581.05 396.2468
vt -738.336 40.20077
vt -738.336 20.10541
vt -235.3878 738.336
vt -445.1981 738.336
vt 445.1981 738.336
vt 235.3878 738.3361
vt 738.3361 20.10541
vt 738.336 40.20077
vt -738.336 0
vt -235.3878 738.3361
vt 738.3361 0
vt -738.3362 20.10541
vt -738.3362 0
vt 9.27066 738.9888
vt -87.53076 738.3362
vt 87.53076 738.3362
vt -9.27066 738.9888
vt 738.9888 0
vt 738.9888 20.10541
vt -442.9848 40.20077
vt -561.7721 40.20077
vt -442.9848 51.08016
vt -561.7721 51.08016
vt -739.3372 51.18719
vt -739.3372 51.08016
vt -612.5422 51.08016
vt -612.1135 40.20077
vt -612.1135 51.08016
vt -445.1981 51.18719
vt -563.9846 51.08016
vt -445.1981 51.08016

vn 7.321857E-08 0 1
vn -1 0 3.578029E-08
vn 7.321857E-08 0 -1
vn 1 0 0
vn 0 1 0
vn 0 -1 0
vn 0 0.1817853 0.9833382
vn -0.009726525 0.09089266 0.9915745
vn -0.01945305 0 0.9998108
vn 0 0 0
vn 0.3568872 0.3333877 0.392836
vn 0.7137744 0.6667755 -0.2143281
vn 0 -0.3628018 0.9318663
vn 0 -0.1817853 -0.9833382
vn 0.9999981 0 -0.001963282
vn 0.9999604 -0.006216751 -0.0009816408
vn 0.9999227 -0.0124335 0
vn 0.006741358 0 0.9999773
vn 0.999998 0 0.002000828
vn 0.9999207 -0.01243348 0.002000674
vn 0.9999604 -0.006216739 0.001000337
vn 0 0.9987721 -0.04953992
vn 0.9806815 0 -0.1956114
vn 0.7221687 0.6734278 0.1580108
vn 0.2991861 0.3367139 0.5751593
vn -0.1237965 0 0.9923077
vn 0.9774978 0 0.2109457
vn 0.9771577 -0.006073101 0.2123369
vn 0.9768177 -0.0121462 0.2137281
vn 0.02848683 -0.9731646 -0.22834
vn -0.4742014 -0.4865823 -0.221042
vn -0.9768897 0 -0.2137439
vn 0.519758 0.8511458 -0.07350081
vn 0.259879 0.9255729 -0.03675041
vn -0.9771577 0.006076881 -0.212337
vn -0.9774256 0.01215376 -0.2109301
vn 0.2576934 0.9213798 -0.09903553
vn 0.5153868 0.8439875 -0.1485311
vn -0.003608551 0 -0.9999935

usemtl Lit
f 168/353/5 57/350/5 60/48/5
f 59/109/5 168/353/5 60/48/5
f 59/109/5 68/108/5 168/353/5
f 4/4/1 2/2/1 1/1/1
f 1/1/1 3/3/1 4/4/1
f 8/8/2 6/6/2 5/5/2
f 5/5/2 7/7/2 8/8/2
f 10/12/3 9/10/3 6/9/3
f 6/9/3 8/11/3 10/12/3
f 14/16/4 12/14/4 11/13/4
f 11/13/4 13/15/4 14/16/4
f 8/20/5 7/18/5 15/17/5
f 15/17/5 10/19/5 8/20/5
f 5/24/6 6/22/6 9/21/6
f 9/21/6 16/23/6 5/24/6
f 12/26/6 16/23/6 9/21/6
f 9/21/6 11/25/6 12/26/6
f 11/28/3 9/10/3 10/12/3
f 10/12/3 13/27/3 11/28/3
f 20/32/1 18/30/1 17/29/1
f 17/29/1 19/31/1 20/32/1
f 13/34/5 10/19/5 15/17/5
f 15/17/5 14/33/5 13/34/5
f 22/36/2 15/7/2 16/5/2
f 16/5/2 21/35/2 22/36/2
f 21/38/6 16/23/6 12/26/6
f 12/26/6 23/37/6 21/38/6
f 24/40/5 14/33/5 15/17/5
f 15/17/5 22/39/5 24/40/5
f 23/42/4 12/14/4 14/16/4
f 14/16/4 24/41/4 23/42/4
f 28/44/2 26/36/2 25/35/2
f 25/35/2 27/43/2 28/44/2
f 30/46/6 21/38/6 23/37/6
f 23/37/6 29/45/6 30/46/6
f 32/48/5 24/40/5 22/39/5
f 22/39/5 31/47/5 32/48/5
f 34/50/3 23/28/3 24/27/3
f 24/27/3 33/49/3 34/50/3
f 33/52/5 24/40/5 32/48/5
f 32/48/5 35/51/5 33/52/5
f 36/54/6 29/45/6 23/37/6
f 23/37/6 34/53/6 36/54/6
f 35/58/9 32/56/8 29/55/7
f 29/55/7 36/57/8 35/58/9
f 38/62/3 34/60/10 33/59/1
f 33/59/1 37/61/10 38/62/3
f 37/64/6 33/53/6 35/54/6
f 35/54/6 39/63/6 37/64/6
f 40/66/6 36/54/6 34/53/6
f 34/53/6 38/65/6 40/66/6
f 39/61/12 35/59/11 36/60/1
f 36/60/1 40/62/11 39/61/12
f 42/70/3 38/68/3 37/67/3
f 37/67/3 41/69/3 42/70/3
f 46/74/5 44/72/5 43/71/5
f 43/71/5 45/73/5 46/74/5
f 47/76/6 40/66/6 38/65/6
f 38/65/6 42/75/6 47/76/6
f 51/79/1 49/77/1 48/62/1
f 48/62/1 50/78/1 51/79/1
f 44/83/2 37/81/2 39/80/2
f 39/80/2 43/82/2 44/83/2
f 43/87/13 39/85/13 52/84/13
f 52/84/13 45/86/13 43/87/13
f 46/89/3 41/69/3 37/67/3
f 37/67/3 44/88/3 46/89/3
f 54/92/2 32/90/2 29/43/2
f 29/43/2 53/91/2 54/92/2
f 56/94/6 40/66/6 47/76/6
f 47/76/6 55/93/6 56/94/6
f 58/97/3 52/95/3 39/67/3
f 39/67/3 57/96/3 58/97/3
f 60/99/2 32/90/2 54/92/2
f 54/92/2 59/98/2 60/99/2
f 62/101/1 49/77/1 51/79/1
f 51/79/1 61/100/1 62/101/1
f 32/105/14 39/103/14 40/102/14
f 40/102/14 29/104/14 32/105/14
f 29/45/6 40/66/6 56/94/6
f 56/94/6 53/106/6 29/45/6
f 54/109/5 63/108/5 39/107/5
f 39/107/5 32/48/5 54/109/5
f 19/31/1 65/111/1 64/110/1
f 64/110/1 20/32/1 19/31/1
f 32/112/6 39/63/6 63/94/6
f 63/94/6 54/106/6 32/112/6
f 20/115/1 64/77/1 66/113/1
f 66/113/1 67/114/1 20/115/1
f 60/117/3 57/96/3 39/67/3
f 39/67/3 32/116/3 60/117/3
f 70/121/4 63/119/4 68/118/4
f 68/118/4 69/120/4 70/121/4
f 69/123/5 68/108/5 59/109/5
f 59/109/5 71/122/5 69/123/5
f 72/125/6 54/106/6 63/94/6
f 63/94/6 70/124/6 72/125/6
f 71/127/2 59/98/2 54/92/2
f 54/92/2 72/126/2 71/127/2
f 70/124/6 63/94/6 73/93/6
f 73/93/6 74/128/6 70/124/6
f 78/132/15 76/130/15 75/129/15
f 75/129/15 77/131/15 78/132/15
f 69/133/2 68/98/2 63/92/2
f 63/92/2 70/126/2 69/133/2
f 80/135/5 79/134/5 68/108/5
f 68/108/5 69/123/5 80/135/5
f 70/126/2 63/92/2 56/91/2
f 56/91/2 81/136/2 70/126/2
f 81/124/6 56/94/6 55/93/6
f 55/93/6 82/128/6 81/124/6
f 74/139/5 73/137/5 63/108/5
f 63/108/5 70/138/5 74/139/5
f 84/141/17 83/140/16 76/130/15
f 76/130/15 78/132/16 84/141/17
f 81/143/4 56/142/4 63/119/4
f 63/119/4 70/121/4 81/143/4
f 70/138/5 63/108/5 54/109/5
f 54/109/5 72/122/5 70/138/5
f 85/125/6 53/106/6 56/94/6
f 56/94/6 81/124/6 85/125/6
f 72/126/2 54/92/2 53/91/2
f 53/91/2 85/136/2 72/126/2
f 26/145/3 22/12/3 21/10/3
f 21/10/3 25/144/3 26/145/3
f 25/147/6 21/38/6 30/46/6
f 30/46/6 27/146/6 25/147/6
f 28/149/5 31/47/5 22/39/5
f 22/39/5 26/148/5 28/149/5
f 87/153/18 17/151/18 18/150/18
f 18/150/18 86/152/18 87/153/18
f 89/126/2 31/44/2 30/43/2
f 30/43/2 88/136/2 89/126/2
f 88/154/6 30/46/6 29/45/6
f 29/45/6 85/125/6 88/154/6
f 72/122/5 32/48/5 31/47/5
f 31/47/5 89/155/5 72/122/5
f 85/143/4 29/157/4 32/156/4
f 32/156/4 72/121/4 85/143/4
f 88/143/4 30/157/4 31/158/4
f 31/158/4 89/121/4 88/143/4
f 89/155/5 31/47/5 28/149/5
f 28/149/5 90/159/5 89/155/5
f 91/160/6 27/146/6 30/46/6
f 30/46/6 88/154/6 91/160/6
f 90/162/2 28/44/2 27/43/2
f 27/43/2 91/161/2 90/162/2
f 93/164/6 70/124/6 74/128/6
f 74/128/6 92/163/6 93/164/6
f 97/168/19 95/166/19 94/165/19
f 94/165/19 96/167/19 97/168/19
f 98/170/2 69/133/2 70/126/2
f 70/126/2 93/169/2 98/170/2
f 102/172/5 100/135/5 99/123/5
f 99/123/5 101/171/5 102/172/5
f 93/169/2 70/126/2 81/136/2
f 81/136/2 103/173/2 93/169/2
f 103/164/6 81/124/6 82/128/6
f 82/128/6 104/163/6 103/164/6
f 92/172/5 74/139/5 70/138/5
f 70/138/5 93/171/5 92/172/5
f 106/177/4 105/175/21 95/174/20
f 95/174/20 97/176/21 106/177/4
f 108/179/6 93/164/6 92/163/6
f 92/163/6 107/178/6 108/179/6
f 110/183/4 97/181/4 96/180/4
f 96/180/4 109/182/4 110/183/4
f 111/185/2 98/170/2 93/169/2
f 93/169/2 108/184/2 111/185/2
f 113/189/22 112/187/22 98/186/22
f 98/186/22 111/188/22 113/189/22
f 108/184/2 93/169/2 103/173/2
f 103/173/2 114/190/2 108/184/2
f 114/179/6 103/164/6 104/163/6
f 104/163/6 115/178/6 114/179/6
f 107/192/5 92/172/5 93/171/5
f 93/171/5 108/191/5 107/192/5
f 116/194/4 106/193/4 97/181/4
f 97/181/4 110/183/4 116/194/4
f 118/196/6 108/179/6 107/178/6
f 107/178/6 117/195/6 118/196/6
f 122/198/4 120/183/4 119/182/4
f 119/182/4 121/197/4 122/198/4
f 123/200/2 111/185/2 108/184/2
f 108/184/2 118/199/2 123/200/2
f 124/202/5 113/192/5 111/191/5
f 111/191/5 123/201/5 124/202/5
f 118/199/2 108/184/2 114/190/2
f 114/190/2 125/203/2 118/199/2
f 125/196/6 114/179/6 115/178/6
f 115/178/6 126/204/6 125/196/6
f 127/205/5 107/192/5 108/191/5
f 108/191/5 118/201/5 127/205/5
f 126/209/23 115/207/23 107/206/23
f 107/206/23 127/208/23 126/209/23
f 131/211/2 129/199/2 128/203/2
f 128/203/2 130/210/2 131/211/2
f 133/213/6 125/196/6 126/204/6
f 126/204/6 132/212/6 133/213/6
f 135/215/5 127/205/5 118/201/5
f 118/201/5 134/214/5 135/215/5
f 139/218/4 137/216/4 136/198/4
f 136/198/4 138/217/4 139/218/4
f 134/213/6 118/196/6 117/195/6
f 117/195/6 135/212/6 134/213/6
f 138/217/4 136/198/4 140/197/4
f 140/197/4 141/219/4 138/217/4
f 143/220/2 142/200/2 129/199/2
f 129/199/2 131/211/2 143/220/2
f 145/215/5 124/202/5 123/201/5
f 123/201/5 144/214/5 145/215/5
f 142/224/3 123/222/3 118/221/3
f 118/221/3 129/223/3 142/224/3
f 129/226/6 118/196/6 134/213/6
f 134/213/6 131/225/6 129/226/6
f 143/228/5 144/214/5 123/201/5
f 123/201/5 142/227/5 143/228/5
f 147/230/1 49/77/1 62/101/1
f 62/101/1 146/229/1 147/230/1
f 129/223/3 118/221/3 125/68/3
f 125/68/3 128/231/3 129/223/3
f 128/226/6 125/196/6 133/213/6
f 133/213/6 130/225/6 128/226/6
f 131/228/5 134/214/5 118/201/5
f 118/201/5 129/227/5 131/228/5
f 148/232/1 48/62/1 49/77/1
f 49/77/1 147/230/1 148/232/1
f 136/235/3 117/69/3 124/233/3
f 124/233/3 140/234/3 136/235/3
f 140/237/5 124/202/5 145/215/5
f 145/215/5 141/236/5 140/237/5
f 138/239/6 135/212/6 117/195/6
f 117/195/6 136/238/6 138/239/6
f 150/241/1 61/100/1 51/79/1
f 51/79/1 149/240/1 150/241/1
f 137/244/3 126/243/3 127/242/3
f 127/242/3 136/235/3 137/244/3
f 136/237/5 127/205/5 135/215/5
f 135/215/5 138/236/5 136/237/5
f 139/239/6 132/212/6 126/204/6
f 126/204/6 137/238/6 139/239/6
f 149/240/1 51/79/1 50/78/1
f 50/78/1 151/245/1 149/240/1
f 49/247/6 134/213/6 135/212/6
f 135/212/6 51/246/6 49/247/6
f 51/249/4 135/217/4 145/219/4
f 145/219/4 61/248/4 51/249/4
f 62/251/2 144/220/2 134/211/2
f 134/211/2 49/250/2 62/251/2
f 61/253/5 145/215/5 144/214/5
f 144/214/5 62/252/5 61/253/5
f 49/249/4 134/217/4 144/219/4
f 144/219/4 62/248/4 49/249/4
f 62/252/5 144/214/5 143/228/5
f 143/228/5 146/254/5 62/252/5
f 147/255/6 131/225/6 134/213/6
f 134/213/6 49/247/6 147/255/6
f 155/251/2 153/220/2 152/211/2
f 152/211/2 154/250/2 155/251/2
f 48/256/4 133/218/4 134/217/4
f 134/217/4 49/249/4 48/256/4
f 49/252/5 134/214/5 131/228/5
f 131/228/5 147/254/5 49/252/5
f 148/255/6 130/225/6 133/213/6
f 133/213/6 48/247/6 148/255/6
f 154/250/2 152/211/2 156/210/2
f 156/210/2 157/257/2 154/250/2
f 49/250/2 134/211/2 133/210/2
f 133/210/2 48/257/2 49/250/2
f 48/247/6 133/213/6 132/212/6
f 132/212/6 50/246/6 48/247/6
f 51/253/5 135/215/5 134/214/5
f 134/214/5 49/252/5 51/253/5
f 50/256/4 132/218/4 135/217/4
f 135/217/4 51/249/4 50/256/4
f 61/251/2 145/220/2 135/211/2
f 135/211/2 51/250/2 61/251/2
f 51/246/6 135/212/6 138/239/6
f 138/239/6 149/258/6 51/246/6
f 150/259/5 141/236/5 145/215/5
f 145/215/5 61/253/5 150/259/5
f 149/249/4 138/217/4 141/219/4
f 141/219/4 150/248/4 149/249/4
f 51/250/2 135/211/2 132/210/2
f 132/210/2 50/257/2 51/250/2
f 50/246/6 132/212/6 139/239/6
f 139/239/6 151/258/6 50/246/6
f 149/259/5 138/236/5 135/215/5
f 135/215/5 51/253/5 149/259/5
f 151/256/4 139/218/4 138/217/4
f 138/217/4 149/249/4 151/256/4
f 153/261/3 143/224/3 131/223/3
f 131/223/3 152/260/3 153/261/3
f 152/263/6 131/225/6 147/255/6
f 147/255/6 154/262/6 152/263/6
f 155/265/5 146/254/5 143/228/5
f 143/228/5 153/264/5 155/265/5
f 154/267/1 147/230/1 146/229/1
f 146/229/1 155/266/1 154/267/1
f 152/260/3 131/223/3 130/231/3
f 130/231/3 156/268/3 152/260/3
f 156/263/6 130/225/6 148/255/6
f 148/255/6 157/262/6 156/263/6
f 154/265/5 147/254/5 131/228/5
f 131/228/5 152/264/5 154/265/5
f 157/269/1 148/232/1 147/230/1
f 147/230/1 154/267/1 157/269/1
f 2/271/6 5/24/6 16/23/6
f 16/23/6 1/270/6 2/271/6
f 1/273/4 16/14/4 15/16/4
f 15/16/4 3/272/4 1/273/4
f 4/275/2 7/7/2 5/5/2
f 5/5/2 2/274/2 4/275/2
f 3/277/5 15/17/5 7/18/5
f 7/18/5 4/276/5 3/277/5
f 159/280/6 73/93/6 52/278/6
f 52/278/6 158/279/6 159/280/6
f 160/284/1 79/282/1 73/281/1
f 73/281/1 159/283/1 160/284/1
f 162/280/6 55/93/6 47/76/6
f 47/76/6 161/285/6 162/280/6
f 159/283/1 73/281/1 55/286/1
f 55/286/1 162/287/1 159/283/1
f 158/279/6 52/278/6 41/75/6
f 41/75/6 163/288/6 158/279/6
f 161/285/6 47/76/6 42/75/6
f 42/75/6 164/288/6 161/285/6
f 159/291/3 73/69/3 79/289/3
f 79/289/3 160/290/3 159/291/3
f 160/293/5 79/134/5 80/135/5
f 80/135/5 94/292/5 160/293/5
f 95/294/6 74/128/6 73/93/6
f 73/93/6 159/280/6 95/294/6
f 94/298/26 80/296/25 74/295/24
f 74/295/24 95/297/25 94/298/26
f 162/299/3 55/70/3 73/69/3
f 73/69/3 159/291/3 162/299/3
f 159/293/5 73/137/5 74/139/5
f 74/139/5 95/292/5 159/293/5
f 105/300/6 82/128/6 55/93/6
f 55/93/6 162/280/6 105/300/6
f 95/304/29 74/302/28 82/301/27
f 82/301/27 105/303/28 95/304/29
f 95/308/32 74/306/31 80/305/30
f 80/305/30 94/307/31 95/308/32
f 94/312/5 80/310/34 112/309/33
f 112/309/33 96/311/34 94/312/5
f 97/313/6 92/163/6 74/128/6
f 74/128/6 95/294/6 97/313/6
f 96/284/1 112/314/1 92/281/1
f 92/281/1 97/283/1 96/284/1
f 105/318/36 82/316/35 74/315/32
f 74/315/32 95/317/35 105/318/36
f 95/292/5 74/139/5 92/172/5
f 92/172/5 97/319/5 95/292/5
f 106/313/6 104/163/6 82/128/6
f 82/128/6 105/300/6 106/313/6
f 97/283/1 92/281/1 104/286/1
f 104/286/1 106/287/1 97/283/1
f 97/291/3 92/69/3 112/320/3
f 112/320/3 96/290/3 97/291/3
f 96/322/38 112/187/37 113/189/22
f 113/189/22 109/321/37 96/322/38
f 110/323/6 107/178/6 92/163/6
f 92/163/6 97/313/6 110/323/6
f 109/325/1 113/324/1 107/281/1
f 107/281/1 110/283/1 109/325/1
f 106/299/3 104/70/3 92/69/3
f 92/69/3 97/291/3 106/299/3
f 97/319/5 92/172/5 107/192/5
f 107/192/5 110/326/5 97/319/5
f 116/323/6 115/178/6 104/163/6
f 104/163/6 106/313/6 116/323/6
f 110/283/1 107/281/1 115/286/1
f 115/286/1 116/287/1 110/283/1
f 120/328/3 107/69/3 113/233/3
f 113/233/3 119/327/3 120/328/3
f 119/330/5 113/192/5 124/202/5
f 124/202/5 121/329/5 119/330/5
f 122/332/6 117/195/6 107/178/6
f 107/178/6 120/331/6 122/332/6
f 121/334/1 124/324/1 117/281/1
f 117/281/1 122/333/1 121/334/1
f 166/336/6 158/279/6 52/278/6
f 52/278/6 165/335/6 166/336/6
f 83/338/3 162/299/3 159/291/3
f 159/291/3 76/337/3 83/338/3
f 76/340/5 159/293/5 95/292/5
f 95/292/5 78/339/5 76/340/5
f 84/342/6 105/300/6 162/280/6
f 162/280/6 83/341/6 84/342/6
f 78/345/1 95/343/1 105/287/1
f 105/287/1 84/344/1 78/345/1
f 76/337/3 159/291/3 160/290/3
f 160/290/3 75/346/3 76/337/3
f 75/340/5 160/293/5 94/292/5
f 94/292/5 77/339/5 75/340/5
f 78/347/6 95/294/6 159/280/6
f 159/280/6 76/341/6 78/347/6
f 77/349/1 94/348/1 95/343/1
f 95/343/1 78/345/1 77/349/1
f 58/351/5 57/350/5 168/353/5
f 168/353/5 167/352/5 58/351/5
f 167/352/5 168/353/5 68/108/5
f 68/108/5 79/134/5 167/352/5
f 169/354/5 167/352/5 79/134/5
f 79/134/5 170/355/5 169/354/5
f 171/356/5 169/354/5 170/355/5
f 170/355/5 172/357/5 171/356/5
f 173/358/5 169/354/5 171/356/5
f 171/356/5 174/359/5 173/358/5
f 175/362/3 173/360/3 174/361/3
f 174/361/3 176/363/3 175/362/3
f 177/364/5 174/359/5 171/356/5
f 171/356/5 178/365/5 177/364/5
f 181/366/3 179/363/3 180/361/3
f 180/361/3 182/367/3 181/366/3
f 179/371/2 176/369/2 174/368/2
f 174/368/2 180/370/2 179/371/2
f 181/375/6 183/373/6 176/372/6
f 176/372/6 179/374/6 181/375/6
f 182/379/4 177/377/4 183/376/4
f 183/376/4 181/378/4 182/379/4
f 180/381/5 174/359/5 177/364/5
f 177/364/5 182/380/5 180/381/5
f 184/382/5 46/74/5 45/73/5
f 45/73/5 185/383/5 184/382/5
f 64/385/4 70/121/4 69/120/4
f 69/120/4 66/384/4 64/385/4
f 66/387/5 69/123/5 71/122/5
f 71/122/5 67/386/5 66/387/5
f 20/389/6 72/125/6 70/124/6
f 70/124/6 64/388/6 20/389/6
f 67/391/2 71/127/2 72/126/2
f 72/126/2 20/390/2 67/391/2
f 65/392/4 81/143/4 70/121/4
f 70/121/4 64/385/4 65/392/4
f 64/387/5 70/138/5 72/122/5
f 72/122/5 20/393/5 64/387/5
f 19/389/6 85/125/6 81/124/6
f 81/124/6 65/388/6 19/389/6
f 20/390/2 72/126/2 85/136/2
f 85/136/2 19/394/2 20/390/2
f 17/396/4 88/143/4 89/121/4
f 89/121/4 18/395/4 17/396/4
f 18/398/5 89/155/5 90/159/5
f 90/159/5 86/397/5 18/398/5
f 87/400/6 91/160/6 88/154/6
f 88/154/6 17/399/6 87/400/6
f 86/402/2 90/162/2 91/161/2
f 91/161/2 87/401/2 86/402/2
f 18/390/2 89/126/2 88/136/2
f 88/136/2 17/394/2 18/390/2
f 17/399/6 88/154/6 85/125/6
f 85/125/6 19/389/6 17/399/6
f 20/393/5 72/122/5 89/155/5
f 89/155/5 18/398/5 20/393/5
f 19/396/4 85/143/4 72/121/4
f 72/121/4 20/395/4 19/396/4
f 100/406/39 80/404/39 69/403/39
f 69/403/39 99/405/39 100/406/39
f 99/409/2 69/120/10 98/407/4
f 98/407/4 101/408/10 99/409/2
f 102/408/2 112/407/10 80/410/4
f 80/410/4 100/411/10 102/408/2
f 101/414/3 98/412/3 112/320/3
f 112/320/3 102/413/3 101/414/3

