# ProBuilder 5.0.6
# https://unity3d.com/unity/features/worldbuilding/probuilder
# 11/03/2023 22:29:04

mtllib ./Hooker.mtl
o Hooker

g Hooker
v -0.6853343 -0.1213044 0.7369792
v -0.6853343 -0.1213044 -0.7369788
v 0.6853343 -0.1213046 0.7369792
v 0.6853343 -0.1213046 -0.7369788
v -0.6853343 0.1213046 -0.7369792
v 0.6853343 0.1213044 -0.7369792
v -0.6853343 0.1213046 0.7369788
v 0.6853343 0.1213044 0.7369788

vt 0.7369792 -0.6853342
vt -0.7369788 -0.6853342
vt 0.7369792 0.6853342
vt -0.7369788 0.6853342
vt 0.1213031 -0.6853342
vt -0.121306 -0.6853342
vt 0.1213031 0.6853342
vt -0.121306 0.6853342
vt 0.1213045 0.7369792
vt 0.1213045 -0.7369788
vt -0.1213045 0.7369788
vt -0.1213045 -0.7369792

vn -1.192093E-07 -1 0
vn -2.343005E-13 -1.965455E-06 -1
vn 1.192093E-07 1 0
vn 2.343005E-13 1.965455E-06 1
vn 1 -1.192093E-07 0
vn -1 1.192093E-07 0

usemtl Hooker_MAT
f 2/5/2 5/6/2 6/8/2 4/7/2
f 7/5/4 1/6/4 3/8/4 8/7/4
f 3/9/5 4/10/5 6/12/5 8/11/5
f 7/9/6 5/10/6 2/12/6 1/11/6

usemtl Black
f 1/1/1 2/2/1 4/4/1 3/3/1
f 5/1/3 7/2/3 8/4/3 6/3/3

g Pattern_Down
v -0.1281814 -0.1566954 -0.2755346
v 0.1125299 -0.1566954 -0.2764692
v 0.2331964 -0.1566964 -0.07299013
v 0.1329195 -0.1566954 0.1493955
v -0.1390266 -0.1566954 0.1484018
v -0.244873 -0.1566954 -0.07259341

vt 0.0232811 -0.009312627
vt 0.2639923 -0.008377998
vt 0.3846588 -0.2118568
vt 0.2843819 -0.4342422
vt 0.01243596 -0.4332485
vt -0.09341047 -0.2122536

vn -3.588266E-07 -1.000001 -1.883963E-15

usemtl Hooker_MAT
f 12/16/7 13/17/7 11/15/7
f 14/18/7 11/15/7 13/17/7
f 14/18/7 10/14/7 11/15/7
f 14/18/7 9/13/7 10/14/7

g PolyShape (1)
v -0.01146246 -0.1636955 -0.2538472
v -0.03263403 -0.1636955 -0.1351966
v -0.008132224 -0.1636955 -0.06129438
v 0.0161674 -0.1636955 -0.1337241

vt 0 0
vt -0.02117157 -0.1186504
vt 0.003330231 -0.1925526
vt 0.02762985 -0.1201229

vn -3.588266E-07 -1.000001 -3.694859E-15

usemtl Lit
f 18/22/8 17/21/8 16/20/8 15/19/8

g PolyShape (2)
v 0.1825375 -0.1636955 0.03215319
v 0.08431554 -0.1636955 -0.03769392
v 0.007030847 -0.1636955 -0.04712492
v 0.06212863 -0.1636955 0.005797383

vt 0 0
vt -0.02117157 -0.1186504
vt 0.003330231 -0.1925526
vt 0.02762985 -0.1201229

vn -3.588266E-07 -1.000001 -7.389706E-15

usemtl Lit
f 22/26/9 21/25/9 20/24/9 19/23/9

g PolyShape (3)
v -0.1834625 -0.1636954 0.05415317
v -0.07078024 -0.1636954 0.01138779
v -0.01995009 -0.1636954 -0.04758823
v -0.09457832 -0.1636954 -0.03124323

vt 0 0
vt -0.02117157 -0.1186504
vt 0.003330231 -0.1925526
vt 0.02762985 -0.1201229

vn -3.588266E-07 -1.000001 -3.836986E-15

usemtl Lit
f 26/30/10 25/29/10 24/28/10 23/27/10

g Pattern_Up
v 0.1183818 0.129304 -0.2176055
v -0.1223297 0.129304 -0.2185402
v -0.2429964 0.129305 -0.01506114
v -0.1427194 0.129304 0.2073245
v 0.1292269 0.129304 0.2063309
v 0.2350735 0.129304 -0.01466435

vt 0.0232811 -0.009312627
vt 0.2639923 -0.008377998
vt 0.3846588 -0.2118568
vt 0.2843819 -0.4342422
vt 0.01243596 -0.4332485
vt -0.09341047 -0.2122536

vn -1.180111E-07 1 -5.15241E-15

usemtl Hooker_MAT
f 30/34/11 31/35/11 29/33/11
f 32/36/11 29/33/11 31/35/11
f 32/36/11 28/32/11 29/33/11
f 32/36/11 27/31/11 28/32/11

g PolyShape (1)
v 0.001662718 0.136304 -0.1959182
v 0.0228343 0.136304 -0.07726758
v -0.001667539 0.136304 -0.003365362
v -0.02596718 0.136304 -0.07579511

vt 0 0
vt -0.02117157 -0.1186504
vt 0.003330231 -0.1925526
vt 0.02762985 -0.1201229

vn -1.180112E-07 1 -6.963308E-15

usemtl Lit
f 36/40/12 35/39/12 34/38/12 33/37/12

g PolyShape (2)
v -0.1923375 0.1363041 0.0900822
v -0.09411541 0.1363041 0.0202351
v -0.01683065 0.1363041 0.01080411
v -0.07192849 0.1363041 0.06372641

vt 0 0
vt -0.02117157 -0.1186504
vt 0.003330231 -0.1925526
vt 0.02762985 -0.1201229

vn -1.180112E-07 1 -1.065815E-14

usemtl Lit
f 40/44/13 39/43/13 38/42/13 37/41/13

g PolyShape (3)
v 0.1736629 0.136304 0.1120822
v 0.06098053 0.136304 0.06931681
v 0.01015034 0.136304 0.01034079
v 0.08477864 0.136304 0.0266858

vt 0 0
vt -0.02117157 -0.1186504
vt 0.003330231 -0.1925526
vt 0.02762985 -0.1201229

vn -1.180112E-07 1 -7.105436E-15

usemtl Lit
f 44/48/14 43/47/14 42/46/14 41/45/14

